# WaveFront *.obj file (generated by Autodesk ATF)

mtllib 68c03420-a50d-43b5-825f-e769e41d029a.mtl

g Body1

v -50.000000 -40.000000 105.000000
v -35.000000 -40.000000 120.000000
v -35.000000 40.000000 120.000000
v -50.000000 40.000000 105.000000
v 30.000000 -40.000000 120.000000
v 50.000000 -20.000000 120.000000
v 50.000000 40.000000 120.000000
v -50.000000 -40.000000 0.000000
v 30.000000 -40.000000 0.000000
v -50.000000 40.000000 0.000000
v 50.000000 40.000000 0.000000
v 50.000000 -20.000000 0.000000
vt -0.000000 8.000000 0.000000
vt -2.121320 8.000000 0.000000
vt -0.000000 0.000000 0.000000
vt -2.121320 0.000000 0.000000
vt -3.500000 -4.000000 0.000000
vt 3.000000 -4.000000 0.000000
vt -3.500000 4.000000 0.000000
vt 5.000000 -2.000000 0.000000
vt 5.000000 4.000000 0.000000
vt 0.000000 10.500000 0.000000
vt 0.000000 0.000000 0.000000
vt 1.500000 12.000000 0.000000
vt 8.000000 0.000000 0.000000
vt 8.000000 12.000000 0.000000
vt 8.000000 10.500000 0.000000
vt -0.000000 10.500000 0.000000
vt 8.000000 0.000000 0.000000
vt -0.000000 0.000000 0.000000
vt 10.000000 0.000000 0.000000
vt 10.000000 10.500000 0.000000
vt 0.000000 0.000000 0.000000
vt 8.500000 12.000000 0.000000
vt 0.000000 12.000000 0.000000
vt 0.000000 0.000000 0.000000
vt 6.000000 0.000000 0.000000
vt 0.000000 12.000000 0.000000
vt 6.000000 12.000000 0.000000
vt 0.000000 0.000000 0.000000
vt 2.828427 0.000000 0.000000
vt 0.000000 12.000000 0.000000
vt 2.828427 12.000000 0.000000
vt 5.000000 -4.000000 0.000000
vt 5.000000 4.000000 0.000000
vt -3.000000 -4.000000 0.000000
vt -5.000000 -2.000000 0.000000
vt -5.000000 4.000000 0.000000
vn -0.070711 0.000000 0.070711
vn -0.070711 0.000000 0.070711
vn -0.070711 0.000000 0.070711
vn -0.070711 0.000000 0.070711
vn 0.000000 0.000000 0.100000
vn 0.000000 0.000000 0.100000
vn 0.000000 0.000000 0.100000
vn 0.000000 0.000000 0.100000
vn 0.000000 0.000000 0.100000
vn 0.000000 -0.100000 0.000000
vn 0.000000 -0.100000 0.000000
vn 0.000000 -0.100000 0.000000
vn 0.000000 -0.100000 0.000000
vn 0.000000 -0.100000 0.000000
vn -0.100000 0.000000 0.000000
vn -0.100000 0.000000 0.000000
vn -0.100000 0.000000 0.000000
vn -0.100000 0.000000 0.000000
vn 0.000000 0.100000 0.000000
vn 0.000000 0.100000 0.000000
vn 0.000000 0.100000 0.000000
vn 0.000000 0.100000 0.000000
vn 0.000000 0.100000 0.000000
vn 0.100000 0.000000 0.000000
vn 0.100000 0.000000 0.000000
vn 0.100000 0.000000 0.000000
vn 0.100000 0.000000 0.000000
vn 0.070711 -0.070711 0.000000
vn 0.070711 -0.070711 0.000000
vn 0.070711 -0.070711 0.000000
vn 0.070711 -0.070711 0.000000
vn -0.000000 0.000000 -0.100000
vn -0.000000 0.000000 -0.100000
vn -0.000000 0.000000 -0.100000
vn -0.000000 0.000000 -0.100000
vn -0.000000 0.000000 -0.100000
usemtl Steel_-_Satin
f 1/1/1 2/2/2 4/3/3
f 4/3/3 2/2/2 3/4/4
f 2/5/5 5/6/6 3/7/7
f 3/7/7 5/6/6 6/8/8
f 3/7/7 6/8/8 7/9/9
f 1/10/10 8/11/11 2/12/12
f 2/12/12 8/11/11 9/13/13
f 2/12/12 9/13/13 5/14/14
f 1/15/15 4/16/16 8/17/17
f 8/17/17 4/16/16 10/18/18
f 10/19/19 4/20/20 11/21/21
f 11/21/21 4/20/20 3/22/22
f 11/21/21 3/22/22 7/23/23
f 12/24/24 11/25/25 6/26/26
f 6/26/26 11/25/25 7/27/27
f 9/28/28 12/29/29 5/30/30
f 5/30/30 12/29/29 6/31/31
f 8/32/32 10/33/33 9/34/34
f 9/34/34 10/33/33 12/35/35
f 12/35/35 10/33/33 11/36/36
# 12 vertices
# 36 texture params
# 36 normals
# 20 facets

# 1 groups
